<?xml version="1.0" encoding="iso-8859-1"?>
<!-- Generator: Adobe Illustrator 19.0.0, SVG Export Plug-In . SVG Version: 6.00 Build 0)  -->
<svg version="1.1" id="Capa_1" xmlns="http://www.w3.org/2000/svg" xmlns:xlink="http://www.w3.org/1999/xlink" x="0px" y="0px"
	 viewBox="0 0 512 512" style="enable-background:new 0 0 512 512;" xml:space="preserve">
<path style="fill:#D9EEF7;" d="M501.333,96v362.667c0,23.564-19.103,42.667-42.667,42.667H53.333
	c-23.564,0-42.667-19.103-42.667-42.667V96H501.333z"/>
<path style="fill:#AAC4DA;" d="M501.333,53.333V96H10.667V53.333c0-23.564,19.103-42.667,42.667-42.667h405.333
	C482.231,10.667,501.333,29.769,501.333,53.333z"/>
<path style="fill:#FFE451;" d="M437.333,245.333V294.4l-42.667,68.267h32v10.667H53.333c-23.564,0-42.667-19.103-42.667-42.667v-128
	c0-23.564,19.103-42.667,42.667-42.667h341.333c23.564,0,42.667,19.103,42.667,42.667V245.333z"/>
<path style="fill:#F2F2F2;" d="M437.333,294.4L448,277.333l53.333,85.333h-32v64h-42.667v-53.333v-10.667h-32L437.333,294.4z"/>
<g>
	<path style="fill:#4C5B66;" d="M458.667,0H53.333C23.893,0.035,0.035,23.893,0,53.333V128h21.333V53.333c0-17.673,14.327-32,32-32
		h405.333c17.673,0,32,14.327,32,32V288H512V53.333C511.965,23.893,488.107,0.035,458.667,0z"/>
	<path style="fill:#4C5B66;" d="M490.667,458.667c0,17.673-14.327,32-32,32H53.333c-17.673,0-32-14.327-32-32v-53.333H0v53.333
		C0.035,488.107,23.893,511.965,53.333,512h405.333c29.441-0.035,53.298-23.893,53.333-53.333v-53.333h-21.333V458.667z"/>
	<path style="fill:#4C5B66;" d="M42.667,85.333h426.667v21.333H42.667V85.333z"/>
	<path style="fill:#4C5B66;" d="M53.333,42.667h21.333V64H53.333V42.667z"/>
	<path style="fill:#4C5B66;" d="M96,42.667h21.333V64H96V42.667z"/>
	<path style="fill:#4C5B66;" d="M437.333,42.667h21.333V64h-21.333V42.667z"/>
	<path style="fill:#4C5B66;" d="M426.667,437.333h42.667c5.891,0,10.667-4.776,10.667-10.667v-53.333h21.333
		c5.891,0,10.667-4.776,10.667-10.667c0-1.999-0.562-3.958-1.621-5.653l-53.333-85.333c-3.53-5.007-10.451-6.205-15.459-2.675
		c-1.038,0.732-1.943,1.637-2.675,2.675l-53.333,85.333c-3.122,4.996-1.604,11.576,3.392,14.699
		c1.708,1.067,3.682,1.629,5.696,1.621H416v53.333C416,432.558,420.776,437.333,426.667,437.333z M413.867,352L448,297.461
		L482.133,352h-12.8c-5.891,0-10.667,4.776-10.667,10.667V416h-21.333v-53.333c0-5.891-4.776-10.667-10.667-10.667H413.867z"/>
	<path style="fill:#4C5B66;" d="M53.333,384h309.333v-21.333H53.333c-17.673,0-32-14.327-32-32v-128c0-17.673,14.327-32,32-32
		h341.333c17.673,0,32,14.327,32,32v42.667H448v-42.667c-0.035-29.441-23.893-53.298-53.333-53.333H53.333
		C23.893,149.369,0.035,173.226,0,202.667v128C0.035,360.107,23.893,383.965,53.333,384z"/>
	<path style="fill:#4C5B66;" d="M266.667,330.667v-96c0-17.673-14.327-32-32-32H192c-17.673,0-32,14.327-32,32v96h21.333v-53.333h64
		v53.333H266.667z M181.333,256v-21.333c0-5.891,4.776-10.667,10.667-10.667h42.667c5.891,0,10.667,4.776,10.667,10.667V256H181.333
		z"/>
	<path style="fill:#4C5B66;" d="M64,202.667c-5.891,0-10.667,4.776-10.667,10.667v117.333h21.333V288h42.667
		c11.538,0.244,21.089-8.911,21.333-20.449c0.006-0.295,0.006-0.589,0-0.884V224c0.244-11.538-8.911-21.089-20.449-21.333
		c-0.295-0.006-0.589-0.006-0.884,0H64z M117.333,266.667H74.667V224h42.667V266.667z"/>
	<path style="fill:#4C5B66;" d="M352,330.667V288h10.667c17.673,0,32-14.327,32-32v-53.333h-21.333V256
		c0,5.891-4.776,10.667-10.667,10.667H320c-5.891,0-10.667-4.776-10.667-10.667v-53.333H288V256c0,17.673,14.327,32,32,32h10.667
		v42.667H352z"/>
</g>
<g>
</g>
<g>
</g>
<g>
</g>
<g>
</g>
<g>
</g>
<g>
</g>
<g>
</g>
<g>
</g>
<g>
</g>
<g>
</g>
<g>
</g>
<g>
</g>
<g>
</g>
<g>
</g>
<g>
</g>
</svg>
