<?xml version="1.0" encoding="iso-8859-1"?>
<!-- Generator: Adobe Illustrator 19.0.0, SVG Export Plug-In . SVG Version: 6.00 Build 0)  -->
<svg version="1.1" id="Capa_1" xmlns="http://www.w3.org/2000/svg" xmlns:xlink="http://www.w3.org/1999/xlink" x="0px" y="0px"
	 viewBox="0 0 512 512" style="enable-background:new 0 0 512 512;" xml:space="preserve">
<path style="fill:#DCE5DF;" d="M504.5,295.456L504.5,295.456c0,47.981-38.897,86.878-86.878,86.878H139.03
	c-47.981,0-86.878-38.897-86.878-86.878l0,0c0-28.103,13.347-53.084,34.044-68.964C42.052,222.368,7.5,185.223,7.5,140.001l0,0
	c0-47.981,38.897-86.878,86.878-86.878H372.97c47.981,0,86.878,38.896,86.878,86.878l0,0c0,28.103-13.347,53.084-34.044,68.964
	C469.948,213.089,504.5,250.235,504.5,295.456z"/>
<path style="fill:#77BD63;" d="M191.934,366.66c0-10.722,8.692-19.414,19.414-19.414s19.414,8.692,19.414,19.414
	s-8.692,19.414-19.414,19.414S191.934,377.382,191.934,366.66z"/>
<path style="fill:#FFC261;" d="M306.403,154.464l-16.428,16.428v332.123h-67.949V170.892l-16.428-16.428
	c-11.373-11.372-11.373-29.811,0-41.183l14.624-14.624l-19.513-72.824c-2.142-7.993,2.801-16.215,10.98-17.999
	c7.66-1.671,15.226,3.286,17.255,10.859l14.914,55.661c1.473,5.496,6.453,9.317,12.143,9.317s10.67-3.822,12.143-9.317
	l15.021-56.059c2.142-7.993,10.534-12.642,18.509-10.098c7.469,2.383,11.543,10.459,9.514,18.032l-19.407,72.427l14.624,14.624
	C317.775,124.653,317.775,143.091,306.403,154.464z"/>
<path style="fill:#F3B05F;" d="M289.975,495.923v7.092h-67.949V170.892l-16.428-16.428c-11.372-11.372-11.372-29.811,0-41.183
	l14.624-14.624l-19.513-72.824c-2.142-7.993,2.801-16.215,10.98-17.999c4.263-0.93,8.494,0.197,11.76,2.682
	c-4.351,3.404-6.502,9.183-4.982,14.856l17.53,65.355c1.797,6.701-0.118,13.852-5.023,18.757l-6.334,6.334
	c-11.092,11.092-11.092,29.075,0,40.166l10.336,10.336c3.641,3.641,5.686,8.579,5.686,13.728v315.876h49.313V495.923z"/>
<path style="fill:#CD8E5E;" d="M443.146,104.427c21.444,0,38.828,17.384,38.828,38.828v63.239c0,2.613-0.698,5.06-1.903,7.18
	c-1.416,3.726-3.62,7.222-6.621,10.223l-16.428,16.428V504.5h-67.949V240.326l-16.428-16.428c-3.002-3.002-5.205-6.497-6.621-10.223
	c-1.206-2.12-1.903-4.567-1.903-7.18v-67.949c0-8.042,6.519-14.561,14.561-14.561c6.337,0,13.016,4.056,15.017,9.707V90.01
	c0-8.042,6.519-14.561,14.561-14.561l0,0c8.042,0,14.561,6.519,14.561,14.561v14.418L443.146,104.427L443.146,104.427z"/>
<path style="fill:#BA8357;" d="M389.073,504.5V240.326l-16.428-16.428c-3.002-3.002-5.205-6.497-6.621-10.223
	c-1.206-2.12-1.903-4.567-1.903-7.18v-67.949c0-8.042,6.519-14.561,14.561-14.561c1.472,0,2.96,0.227,4.405,0.634
	c-0.33,1.218-0.522,2.493-0.522,3.815v67.949c0,2.614,0.698,5.06,1.903,7.181c1.416,3.726,3.619,7.221,6.621,10.223l16.428,16.428
	V500L389.073,504.5z"/>
<path style="fill:#F4925A;" d="M89.181,195.816v-14.418c0-8.042,6.519-14.561,14.561-14.561l0,0c8.042,0,14.561,6.519,14.561,14.561
	v43.682c2.001-5.652,8.68-9.707,15.017-9.707c8.042,0,14.561,6.519,14.561,14.561v67.949c0,2.613-0.698,5.06-1.903,7.18
	c-1.416,3.726-3.619,7.222-6.621,10.223l-16.428,16.428V504.5H54.978V331.715L38.55,315.287c-3.002-3.002-5.205-6.497-6.621-10.223
	c-1.206-2.12-1.903-4.567-1.903-7.18v-63.239c0-21.444,17.384-38.828,38.828-38.828h20.327V195.816z"/>
<path style="fill:#EA744F;" d="M54.978,504.5V331.715L38.55,315.287c-3.002-3.002-5.205-6.497-6.621-10.223
	c-1.206-2.12-1.903-4.567-1.903-7.18v-63.239c0-17.687,11.83-32.601,28.006-37.288c-7.102,7.036-11.504,16.794-11.504,27.581v63.239
	c0,2.613,0.698,5.06,1.903,7.18c1.416,3.726,3.62,7.222,6.621,10.223l10.742,10.742c3.641,3.641,5.686,8.579,5.686,13.728V500
	L54.978,504.5z"/>
<path style="fill:#77BD63;" d="M55.705,22.061c0,8.042-6.519,14.561-14.561,14.561s-14.561-6.519-14.561-14.561
	S33.103,7.5,41.144,7.5S55.705,14.019,55.705,22.061z"/>
<path style="fill:#6C6272;" d="M36.621,161.518c0,8.042-6.519,14.561-14.561,14.561S7.5,169.56,7.5,161.518
	s6.519-14.561,14.561-14.561S36.621,153.477,36.621,161.518z"/>
<path style="fill:#F36754;" d="M104.57,104.57c0-10.722,8.692-19.414,19.414-19.414s19.414,8.692,19.414,19.414
	s-8.692,19.414-19.414,19.414S104.57,115.292,104.57,104.57z"/>
<path style="fill:#FFC261;" d="M504.5,22.061c0,8.041-6.519,14.561-14.561,14.561s-14.561-6.519-14.561-14.561
	S481.897,7.5,489.939,7.5C497.981,7.5,504.5,14.019,504.5,22.061z M123.984,386.074c-10.722,0-19.414,8.692-19.414,19.414
	s8.692,19.414,19.414,19.414s19.414-8.692,19.414-19.414S134.706,386.074,123.984,386.074z"/>
<path style="fill:#FF957C;" d="M434.609,424.902c0-10.722,8.692-19.414,19.414-19.414c10.722,0,19.414,8.692,19.414,19.414
	s-8.692,19.414-19.414,19.414S434.609,435.624,434.609,424.902z"/>
<path style="fill:#99CFD7;" d="M279.297,221.055c0-10.722,8.692-19.414,19.414-19.414c10.722,0,19.414,8.692,19.414,19.414
	s-8.692,19.414-19.414,19.414C287.989,240.469,279.297,231.777,279.297,221.055z"/>
<path style="fill:#6C6272;" d="M405.488,322.979c0,8.042-6.519,14.561-14.561,14.561s-14.561-6.519-14.561-14.561
	s6.519-14.561,14.561-14.561S405.488,314.937,405.488,322.979z"/>
<path d="M41.144,44.13c12.164,0,22.061-9.896,22.061-22.06S53.309,0.01,41.144,0.01S19.083,9.906,19.083,22.07
	S28.98,44.13,41.144,44.13z M41.144,15.009c3.893,0,7.061,3.167,7.061,7.06s-3.167,7.06-7.061,7.06s-7.061-3.167-7.061-7.06
	S37.251,15.009,41.144,15.009z M489.939,0.009c-12.164,0-22.061,9.896-22.061,22.06s9.896,22.06,22.061,22.06S512,34.233,512,22.07
	S502.104,0.009,489.939,0.009z M489.939,29.13c-3.893,0-7.061-3.167-7.061-7.06s3.167-7.06,7.061-7.06S497,18.177,497,22.07
	S493.833,29.13,489.939,29.13z M123.984,131.491c14.84,0,26.914-12.074,26.914-26.914s-12.074-26.914-26.914-26.914
	S97.07,89.738,97.07,104.578S109.144,131.491,123.984,131.491z M123.984,92.664c6.569,0,11.914,5.345,11.914,11.914
	s-5.345,11.914-11.914,11.914s-11.914-5.345-11.914-11.914S117.415,92.664,123.984,92.664z M443.146,96.935h-12.827v-6.917
	c0-12.164-9.896-22.06-22.061-22.06s-22.061,9.896-22.061,22.06v27.689c-2.401-0.787-4.942-1.215-7.517-1.215
	c-12.164,0-22.061,9.896-22.061,22.06V206.5c0,3.604,0.894,7.171,2.591,10.357c1.844,4.644,4.577,8.796,8.13,12.35l14.231,14.231
	v59.568c-7.5,3.527-12.706,11.156-12.706,19.977c0,8.822,5.206,16.45,12.706,19.977V497h-16.854c-4.142,0-7.5,3.358-7.5,7.5
	s3.358,7.5,7.5,7.5h108.719c4.142,0,7.5-3.358,7.5-7.5s-3.358-7.5-7.5-7.5h-8.916v-47.315c9.639-4.099,16.416-13.664,16.416-24.781
	s-6.776-20.682-16.416-24.781V243.437l14.232-14.231c3.553-3.553,6.286-7.706,8.129-12.35c1.697-3.186,2.591-6.753,2.591-10.356
	v-63.238C489.475,117.717,468.692,96.935,443.146,96.935z M390.928,330.042c-3.893,0-7.061-3.167-7.061-7.06s3.167-7.06,7.061-7.06
	s7.061,3.167,7.061,7.06C397.988,326.875,394.821,330.042,390.928,330.042z M465.938,424.904c0,6.569-5.345,11.914-11.914,11.914
	s-11.914-5.345-11.914-11.914s5.345-11.914,11.914-11.914S465.938,418.335,465.938,424.904z M474.475,206.5
	c0,1.228-0.311,2.396-0.923,3.473c-0.19,0.334-0.354,0.683-0.491,1.043c-1.086,2.858-2.739,5.41-4.914,7.584l-16.428,16.427
	c-1.407,1.406-2.197,3.314-2.197,5.303v158.036c-12.705,2.148-22.413,13.23-22.413,26.537s9.708,24.389,22.413,26.537V497h-52.949
	V344.31c9.438-2.5,16.416-11.115,16.416-21.328s-6.977-18.828-16.416-21.328v-61.323c0-1.989-0.79-3.897-2.197-5.303l-16.428-16.427
	c-2.175-2.175-3.828-4.727-4.914-7.585c-0.137-0.36-0.301-0.708-0.491-1.043c-0.612-1.077-0.922-2.245-0.922-3.473v-67.948
	c0-3.893,3.167-7.06,7.061-7.06c2.895,0,6.179,1.742,7.517,3.842v56.606c0,4.142,3.358,7.5,7.5,7.5s7.5-3.358,7.5-7.5V90.018
	c0-3.893,3.167-7.06,7.061-7.06s7.061,3.167,7.061,7.06v72.658c0,4.142,3.358,7.5,7.5,7.5s7.5-3.358,7.5-7.5v-50.741h12.827
	c0.587,0,1.171,0.016,1.75,0.048v52.636c0,4.142,3.358,7.5,7.5,7.5s7.5-3.358,7.5-7.5v-47.82
	c8.755,5.562,14.578,15.346,14.578,26.464V206.5H474.475z M133.319,207.879c-2.575,0-5.116,0.429-7.517,1.215v-27.689
	c0-12.164-9.896-22.06-22.061-22.06s-22.061,9.896-22.061,22.06v6.917H68.854c-25.545,0-46.328,20.782-46.328,46.327v63.238
	c0,3.603,0.894,7.171,2.591,10.356c1.844,4.644,4.577,8.797,8.13,12.35l14.231,14.231V497H34.68c-4.142,0-7.5,3.358-7.5,7.5
	s3.358,7.5,7.5,7.5h108.719c4.142,0,7.5-3.358,7.5-7.5s-3.358-7.5-7.5-7.5h-12.971v-65.376
	c11.739-2.895,20.471-13.514,20.471-26.134s-8.732-23.239-20.471-26.134v-44.531l14.231-14.231c3.553-3.553,6.286-7.705,8.13-12.349
	c1.697-3.185,2.591-6.753,2.591-10.357V229.94C155.379,217.775,145.483,207.879,133.319,207.879z M135.898,405.49
	c0,6.569-5.345,11.914-11.914,11.914s-11.914-5.345-11.914-11.914s5.345-11.914,11.914-11.914S135.898,398.921,135.898,405.49z
	 M140.379,297.887c0,1.228-0.311,2.396-0.922,3.473c-0.19,0.335-0.354,0.684-0.491,1.043c-1.086,2.858-2.739,5.41-4.914,7.584
	l-16.428,16.428c-1.407,1.406-2.197,3.314-2.197,5.303v48.253c-10.659,3.583-18.357,13.669-18.357,25.52
	c0,11.85,7.698,21.936,18.357,25.52V497H62.478V331.718c0-1.989-0.79-3.897-2.197-5.303l-16.428-16.428
	c-2.174-2.174-3.828-4.726-4.914-7.584c-0.137-0.36-0.301-0.708-0.491-1.043c-0.612-1.077-0.923-2.245-0.923-3.473V234.65
	c0-11.118,5.823-20.902,14.578-26.464v47.82c0,4.142,3.358,7.5,7.5,7.5s7.5-3.358,7.5-7.5V203.37c0.58-0.032,1.163-0.048,1.75-0.048
	H81.68v50.741c0,4.142,3.358,7.5,7.5,7.5s7.5-3.358,7.5-7.5v-72.658c0-3.893,3.167-7.06,7.061-7.06s7.061,3.167,7.061,7.06v101.922
	c0,4.142,3.358,7.5,7.5,7.5s7.5-3.358,7.5-7.5v-56.606c1.338-2.1,4.622-3.842,7.517-3.842c3.893,0,7.061,3.167,7.061,7.06
	L140.379,297.887L140.379,297.887z M44.121,161.525c0-12.164-9.896-22.06-22.061-22.06S0,149.361,0,161.525
	s9.896,22.06,22.061,22.06S44.121,173.688,44.121,161.525z M22.061,168.585c-3.893,0-7.061-3.167-7.061-7.06
	c0-3.893,3.167-7.06,7.061-7.06s7.061,3.167,7.061,7.06C29.121,165.418,25.954,168.585,22.061,168.585z M289.975,345.69
	c4.142,0,7.5-3.358,7.5-7.5v-90.244c0.409,0.019,0.822,0.028,1.236,0.028c14.84,0,26.914-12.074,26.914-26.914
	s-12.074-26.914-26.914-26.914c-0.414,0-0.827,0.009-1.236,0.028v-20.17l14.231-14.231c14.279-14.278,14.279-37.511,0-51.789
	l-11.562-11.561L318.43,28.18c3.113-11.622-3.247-23.534-14.479-27.118c-5.813-1.853-11.957-1.268-17.3,1.652
	c-5.268,2.878-9.179,7.853-10.732,13.65l-15.021,56.058c-0.593,2.213-2.607,3.758-4.898,3.758s-4.305-1.545-4.898-3.759
	l-14.915-55.66c-3.115-11.622-14.578-18.759-26.099-16.245c-5.961,1.301-10.989,4.88-14.156,10.08
	c-3.123,5.126-4.022,11.39-2.47,17.187l18.393,68.641l-11.562,11.561c-14.279,14.278-14.279,37.511,0,51.789l14.231,14.231v165.928
	c-1.047-0.122-2.107-0.184-3.178-0.184c-14.84,0-26.914,12.074-26.914,26.914s12.074,26.914,26.914,26.914
	c1.068,0,2.128-0.063,3.178-0.186V497h-12.885c-4.142,0-7.5,3.358-7.5,7.5s3.358,7.5,7.5,7.5h108.719c4.142,0,7.5-3.358,7.5-7.5
	s-3.358-7.5-7.5-7.5h-12.885V365.045c0-4.142-3.358-7.5-7.5-7.5s-7.5,3.358-7.5,7.5V497h-52.949V383.994
	c0.124-0.778,0.126-1.576,0-2.364V170.898c0-1.989-0.79-3.897-2.197-5.303L210.9,149.167c-4.083-4.084-6.333-9.513-6.333-15.288
	s2.249-11.204,6.333-15.288l14.624-14.623c1.895-1.895,2.635-4.656,1.941-7.244l-19.513-72.822
	c-0.504-1.882-0.224-3.836,0.791-5.502c1.013-1.664,2.627-2.81,4.542-3.228c3.613-0.79,7.393,1.666,8.413,5.473l14.915,55.66
	c2.347,8.759,10.319,14.876,19.387,14.876c9.068,0,17.04-6.117,19.387-14.876l15.021-56.058c0.504-1.882,1.725-3.434,3.436-4.369
	c1.709-0.934,3.679-1.121,5.548-0.524c3.528,1.126,5.569,5.139,4.549,8.946l-19.407,72.425c-0.693,2.588,0.047,5.35,1.941,7.244
	l14.624,14.623c4.083,4.084,6.333,9.513,6.333,15.288s-2.249,11.204-6.333,15.288l-16.428,16.427
	c-1.407,1.406-2.197,3.314-2.197,5.303v28.71c-6.483,4.919-10.678,12.705-10.678,21.452s4.194,16.533,10.678,21.452v95.678
	C282.475,342.332,285.833,345.69,289.975,345.69z M214.525,378.149c-1.026,0.283-2.093,0.428-3.178,0.428
	c-6.569,0-11.914-5.345-11.914-11.914s5.345-11.914,11.914-11.914c1.091,0,2.153,0.143,3.178,0.425V378.149z M298.711,209.146
	c6.569,0,11.914,5.345,11.914,11.914s-5.345,11.914-11.914,11.914s-11.914-5.345-11.914-11.914S292.142,209.146,298.711,209.146z"/>
<g>
</g>
<g>
</g>
<g>
</g>
<g>
</g>
<g>
</g>
<g>
</g>
<g>
</g>
<g>
</g>
<g>
</g>
<g>
</g>
<g>
</g>
<g>
</g>
<g>
</g>
<g>
</g>
<g>
</g>
</svg>
