<svg id="Layer_1" enable-background="new 0 0 256 256" height="512" viewBox="0 0 256 256" width="512" xmlns="http://www.w3.org/2000/svg"><path d="m226.48 26.102c-.974 11.564-13.031 13.389-13.031 13.389 10.352.487 12.932 14.059 12.932 14.059.221-9.677 13.328-14.202 13.328-14.202-9.819-.587-13.229-13.246-13.229-13.246z" fill="#d7e057"/><path d="m239.798 37.851c-8.609-.515-11.838-12.025-11.87-12.141-.191-.702-.863-1.174-1.583-1.101-.725.066-1.298.642-1.359 1.367-.861 10.215-11.32 11.963-11.761 12.033-.763.115-1.313.79-1.273 1.56s.657 1.384 1.428 1.421c9.033.425 11.505 12.718 11.529 12.842.137.711.759 1.217 1.472 1.217.042 0 .084-.002.127-.005.764-.064 1.356-.693 1.374-1.459.195-8.509 12.198-12.777 12.319-12.819.676-.235 1.092-.914.995-1.623-.1-.708-.684-1.249-1.398-1.292zm-13.573 10.347c-1.357-3.131-3.711-6.908-7.591-8.878 2.933-1.405 6.413-3.914 8.207-8.274 1.551 3.071 4.201 6.881 8.338 8.724-3.009 1.64-6.927 4.406-8.954 8.428z" fill="#3a312a"/><path d="m204.77 43.083c-.689 8.179-9.217 9.47-9.217 9.47 7.322.344 9.147 9.944 9.147 9.944.156-6.844 9.427-10.045 9.427-10.045-6.945-.415-9.357-9.369-9.357-9.369z" fill="#d7e057"/><path d="m214.216 50.955c-5.77-.345-7.977-8.186-7.999-8.265-.19-.702-.855-1.164-1.582-1.102-.725.065-1.299.642-1.36 1.368-.579 6.871-7.651 8.067-7.947 8.114-.763.115-1.313.79-1.273 1.561.04.77.657 1.384 1.428 1.421 6.039.284 7.728 8.644 7.744 8.726.135.712.759 1.22 1.472 1.22.042 0 .083-.001.125-.005.765-.063 1.358-.694 1.376-1.461.13-5.708 8.336-8.633 8.417-8.661.677-.234 1.094-.913.997-1.622-.098-.71-.683-1.251-1.398-1.294zm-9.589 6.795c-.924-1.886-2.341-3.948-4.45-5.281 1.857-1.041 3.699-2.63 4.874-4.917 1.057 1.874 2.655 3.956 4.944 5.225-1.851 1.101-3.992 2.741-5.368 4.973z" fill="#3a312a"/><path d="m204.77 16.425c-.689 8.179-9.217 9.471-9.217 9.471 7.322.344 9.147 9.944 9.147 9.944.156-6.844 9.427-10.045 9.427-10.045-6.945-.416-9.357-9.37-9.357-9.37z" fill="#d7e057"/><path d="m214.216 24.297c-5.77-.345-7.977-8.186-7.999-8.265-.19-.702-.855-1.163-1.582-1.102-.725.065-1.299.643-1.36 1.368-.579 6.871-7.651 8.067-7.947 8.114-.762.115-1.313.79-1.273 1.56.04.771.657 1.385 1.428 1.421 6.039.284 7.728 8.644 7.744 8.726.135.712.759 1.22 1.472 1.22.042 0 .083-.001.125-.005.765-.063 1.358-.694 1.376-1.461.13-5.708 8.336-8.633 8.417-8.662.676-.234 1.094-.913.996-1.622-.097-.708-.682-1.249-1.397-1.292zm-9.589 6.796c-.924-1.886-2.341-3.948-4.45-5.281 1.857-1.042 3.699-2.631 4.874-4.918 1.058 1.874 2.656 3.956 4.944 5.225-1.851 1.102-3.992 2.741-5.368 4.974z" fill="#3a312a"/><path d="m117.795 183.224h-19.54v-12.693c-5.405 3.745-10.997 5.954-16.424 5.954-5.206 0-10.699-2.232-16.081-6.021h-.331v12.759h-19.552c-16.335 0-29.576 13.234-29.576 29.56v26.788h131.08v-26.788c0-16.325-13.24-29.559-29.576-29.559z" fill="#fce8cb"/><path d="m117.795 181.724h-18.04v-11.193c0-.558-.31-1.07-.804-1.329s-1.091-.223-1.55.096c-5.446 3.774-10.684 5.688-15.569 5.688-4.68 0-9.8-1.934-15.218-5.747-.253-.178-.554-.273-.863-.273h-.331c-.829 0-1.5.671-1.5 1.5v11.259h-18.053c-17.135 0-31.076 13.934-31.076 31.061v26.788c0 .829.671 1.5 1.5 1.5h44.913c.829 0 1.5-.671 1.5-1.5s-.671-1.5-1.5-1.5h-43.412v-25.288c0-15.473 12.595-28.061 28.076-28.061h19.552c.829 0 1.5-.671 1.5-1.5v-10.177c5.204 3.279 10.211 4.938 14.913 4.938 4.779 0 9.789-1.577 14.923-4.691v9.93c0 .829.671 1.5 1.5 1.5h19.54c15.481 0 28.076 12.588 28.076 28.061v25.288h-69.893c-.829 0-1.5.671-1.5 1.5s.671 1.5 1.5 1.5h71.392c.829 0 1.5-.671 1.5-1.5v-26.788c0-17.128-13.94-31.062-31.076-31.062z" fill="#3a312a"/><path d="m117.796 183.215h-4.675l.122.088-20.325 26.943-10.489-7.898-10.489 7.898-20.325-26.943.121-.088h-5.869c-16.335 0-29.576 13.234-29.576 29.561v26.799h131.08v-26.799c.001-16.327-13.24-29.561-29.575-29.561z" fill="#8ac6dd"/><path d="m117.796 181.715h-4.675c-.65 0-1.226.419-1.427 1.036-.019.058-.033.115-.045.173l-19.026 25.222-9.292-6.997c-.534-.402-1.271-.402-1.805 0l-9.292 6.997-19.027-25.222c-.011-.058-.026-.116-.045-.173-.201-.618-.777-1.036-1.427-1.036h-5.869c-17.135 0-31.076 13.934-31.076 31.061v26.799c0 .829.671 1.5 1.5 1.5h44.913c.829 0 1.5-.671 1.5-1.5s-.671-1.5-1.5-1.5h-43.411v-25.299c0-15.473 12.595-28.061 28.076-28.061h4.933l19.942 26.435c.498.662 1.438.793 2.1.295l9.586-7.219 9.586 7.219c.662.498 1.602.366 2.1-.295l19.941-26.435h3.74c15.481 0 28.076 12.588 28.076 28.061v25.299h-69.893c-.829 0-1.5.671-1.5 1.5s.671 1.5 1.5 1.5h71.393c.829 0 1.5-.671 1.5-1.5v-26.799c0-17.127-13.941-31.061-31.076-31.061z" fill="#3a312a"/><ellipse clip-rule="evenodd" cx="31.046" cy="109.945" fill="#fce8cb" fill-rule="evenodd" rx="11.631" ry="11.637" transform="matrix(.003 -1 1 .003 -78.978 140.712)"/><path d="m31.046 96.814c-7.244 0-13.137 5.891-13.137 13.131 0 7.241 5.893 13.131 13.137 13.131s13.138-5.891 13.138-13.131-5.894-13.131-13.138-13.131zm0 23.263c-5.59 0-10.137-4.545-10.137-10.131s4.547-10.131 10.137-10.131 10.138 4.545 10.138 10.131-4.548 10.131-10.138 10.131z" fill="#3a312a"/><ellipse clip-rule="evenodd" cx="132.62" cy="109.945" fill="#fce8cb" fill-rule="evenodd" rx="11.638" ry="11.631" transform="matrix(1 -.003 .003 1 -.273 .33)"/><path d="m132.621 96.814c-7.244 0-13.138 5.891-13.138 13.131 0 7.241 5.894 13.131 13.138 13.131s13.137-5.891 13.137-13.131-5.894-13.131-13.137-13.131zm0 23.263c-5.59 0-10.138-4.545-10.138-10.131s4.548-10.131 10.138-10.131 10.137 4.545 10.137 10.131-4.548 10.131-10.137 10.131z" fill="#3a312a"/><path d="m81.833 52.736c-28.492 0-51.59 23.086-51.59 51.563s28.538 72.188 51.59 72.188c24.149 0 51.59-43.711 51.59-72.188 0-28.478-23.097-51.563-51.59-51.563z" fill="#fce8cb"/><g fill="#3a312a"><path d="m81.833 51.236c-29.274 0-53.09 23.804-53.09 53.063 0 13.838 6.674 32.087 17.417 47.627 11.282 16.319 24.618 26.062 35.673 26.062 11.638 0 24.793-9.502 36.09-26.07 10.486-15.377 17-33.624 17-47.618 0-29.26-23.816-53.064-53.09-53.064zm33.612 98.991c-10.572 15.504-23.137 24.76-33.612 24.76-10.07 0-22.483-9.259-33.205-24.768-10.415-15.064-16.885-32.66-16.885-45.92 0-27.605 22.47-50.063 50.09-50.063s50.09 22.458 50.09 50.063c0 13.424-6.314 31.022-16.478 45.928z"/><path d="m63.619 98.684c-2.781 0-5.035 2.254-5.035 5.033 0 2.78 2.254 5.033 5.035 5.033s5.035-2.253 5.035-5.033c0-2.779-2.254-5.033-5.035-5.033z"/><path d="m100.047 98.684c-2.781 0-5.035 2.254-5.035 5.033 0 2.78 2.254 5.033 5.035 5.033s5.035-2.253 5.035-5.033c.001-2.779-2.254-5.033-5.035-5.033z"/></g><path d="m53.555 112.198c-4.79 0-8.674 2.902-8.674 6.481s3.884 6.481 8.674 6.481c4.791 0 8.674-2.902 8.674-6.481s-3.883-6.481-8.674-6.481z" fill="#f5978a"/><path d="m110.111 112.198c-4.79 0-8.674 2.902-8.674 6.481s3.884 6.481 8.674 6.481 8.674-2.902 8.674-6.481-3.883-6.481-8.674-6.481z" fill="#f5978a"/><path d="m135.826 92.38c0-28.18-23.907-51.025-53.397-51.025-29.491 0-53.397 22.845-53.397 51.026 0 2.982.539 5.205 1.543 7.981.473 1.309 8.119-2.871 8.77-3.329 3.256-2.291 5.916-5.396 7.905-8.829.822-1.427 1.508-2.88 2.06-4.333 1.76-4.635 6.542-17.533 11.398-16.521 6.512 1.357 13.892 2.123 21.721 2.123s15.21-.767 21.722-2.123c4.856-1.012 9.638 11.886 11.398 16.521.552 1.453 1.237 2.905 2.06 4.333 3.285 5.679 8.833 11.086 15.583 12.069.017-.326.429-.437.736-.548 2.208-.802 1.898-5.574 1.898-7.345z" fill="#87796f"/><path d="m137.332 92.956-.006-.575c0-28.962-24.627-52.525-54.897-52.525s-54.898 23.562-54.898 52.525c0 3.31.625 5.703 1.632 8.49.195.542.635.956 1.206 1.136.187.059.404.086.645.086 2.855 0 9.131-3.79 9.193-3.833 3.259-2.293 6.143-5.51 8.341-9.307.847-1.471 1.575-3.002 2.162-4.549l.112-.295c5.287-13.94 8.264-15.563 9.579-15.29 6.865 1.43 14.276 2.155 22.027 2.155s15.162-.725 22.027-2.155c1.307-.267 4.292 1.348 9.58 15.294l.11.291c.588 1.549 1.316 3.08 2.164 4.551 4.103 7.094 10.333 11.879 16.665 12.803.422.059.843-.058 1.169-.325.103-.085.193-.182.269-.289.014-.005.024-.008.025-.009 2.999-1.089 2.932-5.701 2.895-8.179zm-3.995 5.386c-.149.052-.414.146-.689.314-5.174-1.059-10.264-5.191-13.74-11.201-.767-1.331-1.425-2.716-1.957-4.117l-.11-.29c-3.454-9.108-7.691-18.283-12.997-17.167-6.664 1.388-13.869 2.092-21.416 2.092s-14.752-.704-21.415-2.092c-5.295-1.112-9.542 8.056-12.995 17.163l-.112.294c-.531 1.398-1.189 2.783-1.955 4.113-1.981 3.42-4.564 6.31-7.466 8.352-.895.608-5.027 2.73-6.793 3.213-.724-2.139-1.161-4.09-1.161-6.635 0-27.308 23.281-49.526 51.898-49.526s51.897 22.217 51.897 49.525l.007.62c.063 4.311-.548 5.18-.996 5.342z" fill="#3a312a"/><path d="m60.453 175.932h13.186v33.749h-13.186z" fill="#87796f" transform="matrix(.799 -.602 .602 .799 -102.511 79.14)"/><path d="m83.669 201.41-20.318-26.947c-.499-.662-1.44-.793-2.1-.295l-10.533 7.934c-.318.24-.528.596-.583.99-.056.394.048.794.288 1.112l20.319 26.947c.295.391.744.597 1.199.597.314 0 .631-.098.901-.302l10.532-7.933c.318-.24.528-.595.583-.99.055-.396-.048-.796-.288-1.113zm-11.435 6.736-18.513-24.551 8.137-6.129 18.512 24.552z" fill="#3a312a"/><path d="m80.937 186.213h33.749v13.186h-33.749z" fill="#87796f" transform="matrix(.602 -.799 .799 .602 -115.023 154.824)"/><path d="m114.722 183.091c-.055-.394-.265-.75-.583-.99l-10.532-7.934c-.66-.498-1.601-.366-2.1.295l-20.319 26.948c-.24.318-.343.718-.288 1.112s.265.75.583.99l10.532 7.933c.27.204.587.302.901.302.455 0 .904-.206 1.199-.597l20.319-26.947c.24-.318.344-.718.288-1.112zm-22.099 25.055-8.136-6.128 18.513-24.552 8.136 6.129z" fill="#3a312a"/><path d="m40.844 216.902c-.829 0-1.5.671-1.5 1.5v21.173c0 .829.671 1.5 1.5 1.5s1.5-.671 1.5-1.5v-21.173c0-.828-.671-1.5-1.5-1.5z" fill="#3a312a"/><path d="m124.013 216.902c-.829 0-1.5.671-1.5 1.5v21.173c0 .829.671 1.5 1.5 1.5s1.5-.671 1.5-1.5v-21.173c0-.828-.672-1.5-1.5-1.5z" fill="#3a312a"/><path d="m81.464 22.835c-36.367 21.384-57.475-19.722-57.475-.976 0 5.925 2.388 11.835 5.524 17.212l8.679 12.297c8.757 11.021 19.233 22.772 31.885 26.367 20.378 5.791 56.447-1.433 56.447-30.749-.001-18.746-15.721-41.402-45.06-24.151z" fill="#87796f"/><path d="m113.12 18.361c-6.244-3.573-16.937-5.921-32.417 3.181-21.155 12.438-36.908 2.996-46.32-2.646-4.472-2.681-7.427-4.454-9.723-3.153-1.925 1.09-2.171 3.842-2.171 6.117 0 5.481 1.873 11.358 5.728 17.968.022.037.045.074.07.109l8.679 12.297c.017.023.034.046.051.068 9.38 11.806 19.828 23.233 32.649 26.877 4.308 1.224 9.371 1.896 14.689 1.896 10.829 0 22.715-2.787 31.432-9.372 8.005-6.047 12.236-14.594 12.236-24.716 0-10.006-4.608-22.737-14.903-28.626zm.859 50.948c-12.214 9.227-31.125 10.498-43.492 6.984-11.994-3.408-22.033-14.422-31.094-25.824l-8.617-12.209c-3.558-6.115-5.287-11.48-5.287-16.4 0-3.103.623-3.492.65-3.507.773-.44 4.2 1.617 6.702 3.116 9.329 5.592 26.693 16.002 49.383 2.659 11.271-6.627 21.44-7.721 29.406-3.163 9.252 5.292 13.393 16.883 13.393 26.022 0 9.276-3.715 16.786-11.044 22.322z" fill="#3a312a"/><path d="m96.613 135.851c-.773-.29-1.639.102-1.931.878-1.023 2.73-5.027 7.894-12.851 7.894-6.113 0-10.333-2.621-12.901-8.013-.356-.747-1.251-1.066-1.999-.709-.748.356-1.065 1.251-.709 1.999 3.073 6.452 8.325 9.723 15.609 9.723 8.225 0 13.883-5.102 15.66-9.842.291-.774-.102-1.639-.878-1.93z" fill="#3a312a"/><path d="m167.58 140.18-5.448 19.283-3.838 13.583-6.244 22.103 20.03-13.662 10.323 20.693 15.53-54.969z" fill="#8ac6dd"/><path d="m199.224 146.448c-.208-.354-.553-.606-.953-.698l-30.353-7.031c-.785-.181-1.565.284-1.782 1.054l-5.448 19.283c-.226.797.238 1.626 1.036 1.851.794.224 1.626-.238 1.851-1.036l5.059-17.907 27.428 6.353-14.048 49.723-8.592-17.223c-.193-.388-.545-.673-.964-.782-.418-.108-.865-.031-1.223.212l-16.619 11.335 5.122-18.129c.226-.797-.238-1.626-1.036-1.851-.796-.225-1.627.238-1.851 1.036l-6.244 22.103c-.172.607.055 1.257.567 1.625s1.2.377 1.721.021l18.61-12.693 9.556 19.155c.255.512.777.831 1.342.831.047 0 .094-.002.141-.006.617-.058 1.135-.49 1.303-1.086l15.53-54.969c.111-.395.056-.818-.153-1.171z" fill="#3a312a"/><path d="m224.179 140.18-30.354 7.031 15.53 54.969 10.324-20.693 20.03 13.662z" fill="#8ac6dd"/><path d="m241.152 194.742-15.53-54.969c-.218-.77-.998-1.233-1.782-1.054l-30.354 7.031c-.4.093-.744.345-.953.698s-.264.776-.152 1.171l15.53 54.969c.169.596.686 1.028 1.303 1.086.047.004.094.006.141.006.564 0 1.086-.318 1.342-.831l9.557-19.155 18.61 12.694c.522.355 1.21.346 1.721-.021.512-.369.739-1.018.567-1.625zm-20.628-14.494c-.357-.244-.804-.321-1.223-.212s-.771.395-.964.782l-8.593 17.223-14.048-49.723 27.428-6.353 14.018 49.619z" fill="#3a312a"/><circle cx="195.879" cy="115.429" fill="#f16c7a" r="39.18"/><path d="m195.879 74.75c-22.431 0-40.68 18.249-40.68 40.68s18.249 40.68 40.68 40.68 40.68-18.249 40.68-40.68c0-22.432-18.249-40.68-40.68-40.68zm0 78.359c-20.777 0-37.68-16.903-37.68-37.68s16.903-37.68 37.68-37.68 37.68 16.903 37.68 37.68-16.903 37.68-37.68 37.68z" fill="#3a312a"/><path d="m224.435 110.504c2.725-2.656 1.221-7.283-2.544-7.83l-12.741-1.852c-1.495-.217-2.788-1.156-3.456-2.511l-5.698-11.546c-1.684-3.412-6.549-3.412-8.233 0l-5.698 11.546c-.669 1.355-1.961 2.294-3.456 2.511l-12.741 1.852c-3.765.547-5.269 5.174-2.544 7.83l9.22 8.987c1.082 1.055 1.576 2.574 1.32 4.063l-2.176 12.69c-.643 3.75 3.293 6.61 6.661 4.839l11.396-5.991c1.337-.703 2.935-.703 4.272 0l11.396 5.991c3.368 1.771 7.304-1.089 6.661-4.839l-2.176-12.69c-.255-1.489.238-3.009 1.32-4.063z" fill="#d7e057"/><path d="m225.482 111.578c1.672-1.63 2.263-4.022 1.542-6.243-.722-2.221-2.606-3.81-4.917-4.146l-12.742-1.852c-1.006-.146-1.876-.778-2.326-1.69l-5.698-11.545c-1.034-2.094-3.126-3.395-5.461-3.395-2.336 0-4.428 1.301-5.462 3.395l-5.698 11.546c-.45.912-1.32 1.544-2.327 1.69l-12.741 1.852c-2.311.336-4.195 1.924-4.917 4.146-.722 2.221-.131 4.613 1.542 6.243l9.22 8.987c.729.71 1.061 1.732.889 2.735l-2.177 12.689c-.395 2.302.534 4.585 2.424 5.958 1.067.775 2.316 1.169 3.573 1.169.968 0 1.941-.234 2.84-.707l11.396-5.991c.9-.474 1.976-.474 2.876 0l11.396 5.991c2.068 1.087 4.525.91 6.414-.463 1.89-1.373 2.818-3.655 2.424-5.958l-2.177-12.689c-.172-1.003.16-2.025.889-2.735zm-11.313 6.839c-1.436 1.399-2.091 3.414-1.752 5.391l2.177 12.69c.204 1.186-.256 2.316-1.23 3.023-.973.708-2.188.795-3.254.235l-11.396-5.991c-1.774-.934-3.893-.934-5.669 0l-11.396 5.991c-1.064.56-2.281.472-3.254-.235-.974-.707-1.434-1.837-1.23-3.023l2.177-12.69c.339-1.977-.316-3.992-1.752-5.391l-9.22-8.987c-.861-.839-1.154-2.024-.782-3.168s1.305-1.931 2.495-2.103l12.741-1.852c1.984-.288 3.699-1.533 4.587-3.331l5.698-11.546c.532-1.078 1.568-1.722 2.771-1.722s2.239.644 2.771 1.722l5.698 11.545c.887 1.798 2.602 3.044 4.586 3.332l12.741 1.852c1.191.173 2.123.959 2.495 2.103s.08 2.329-.782 3.168z" fill="#3a312a"/><path d="m195.878 77.75c-3.46 0-6.82.47-10 1.35 3.13.86 6.1 2.12 8.85 3.72.38-.07.76-.11 1.15-.11 2.34 0 4.43 1.3 5.46 3.39l1.5 3.04c2.92 2.99 5.35 6.46 7.15 10.29l12.12 1.76c2.31.33 4.19 1.92 4.92 4.14.72 2.23.13 4.62-1.54 6.25l-9.23 8.98c-.72.71-1.06 1.74-.88 2.74l2.17 12.69c.4 2.3-.53 4.58-2.42 5.96-1.07.77-2.32 1.17-3.58 1.17-.96 0-1.94-.24-2.83-.71l-4.39-2.31c-4.8 5.54-11.19 9.66-18.45 11.66 3.18.88 6.54 1.35 10 1.35 20.78 0 37.68-16.9 37.68-37.68s-16.9-37.68-37.68-37.68z" fill="#d34e5c"/></svg>